<svg width="130" height="36" viewBox="0 0 130 36" fill="none" xmlns="http://www.w3.org/2000/svg">
<path d="M13.4758 23C13.3732 23 13.2892 22.9673 13.2238 22.902C13.1585 22.8367 13.1258 22.7527 13.1258 22.65V13.55C13.1258 13.4473 13.1585 13.3633 13.2238 13.298C13.2892 13.2327 13.3732 13.2 13.4758 13.2H15.0298C15.1325 13.2 15.2165 13.2327 15.2818 13.298C15.3472 13.3633 15.3798 13.4473 15.3798 13.55V21.124H19.7198C19.8225 21.124 19.9065 21.1567 19.9718 21.222C20.0372 21.2873 20.0698 21.3713 20.0698 21.474V22.65C20.0698 22.7527 20.0372 22.8367 19.9718 22.902C19.9065 22.9673 19.8225 23 19.7198 23H13.4758ZM24.3683 23.14C23.2949 23.14 22.4409 22.8413 21.8063 22.244C21.1809 21.6467 20.8496 20.7787 20.8123 19.64C20.8123 19.5653 20.8123 19.4673 20.8123 19.346C20.8123 19.2153 20.8123 19.1127 20.8123 19.038C20.8496 18.3193 21.0129 17.7033 21.3023 17.19C21.5916 16.6673 21.9976 16.2707 22.5203 16C23.0429 15.72 23.6543 15.58 24.3543 15.58C25.1383 15.58 25.7916 15.7433 26.3143 16.07C26.8463 16.3873 27.2429 16.826 27.5043 17.386C27.7749 17.9367 27.9103 18.5713 27.9103 19.29V19.612C27.9103 19.7053 27.8729 19.7847 27.7983 19.85C27.7329 19.9153 27.6536 19.948 27.5603 19.948H22.9823C22.9823 19.9573 22.9823 19.976 22.9823 20.004C22.9823 20.0227 22.9823 20.0413 22.9823 20.06C22.9916 20.3587 23.0476 20.634 23.1503 20.886C23.2623 21.1287 23.4163 21.3247 23.6123 21.474C23.8176 21.6233 24.0603 21.698 24.3403 21.698C24.5736 21.698 24.7649 21.6653 24.9143 21.6C25.0636 21.5347 25.1849 21.4553 25.2783 21.362C25.3809 21.2687 25.4556 21.1893 25.5023 21.124C25.5863 21.0307 25.6516 20.9747 25.6983 20.956C25.7543 20.928 25.8383 20.914 25.9503 20.914H27.4063C27.4996 20.914 27.5743 20.942 27.6303 20.998C27.6956 21.0447 27.7236 21.1147 27.7143 21.208C27.7049 21.3573 27.6256 21.544 27.4763 21.768C27.3363 21.9827 27.1263 22.1973 26.8463 22.412C26.5663 22.6173 26.2163 22.79 25.7963 22.93C25.3856 23.07 24.9096 23.14 24.3683 23.14ZM22.9823 18.674H25.7263V18.646C25.7263 18.31 25.6703 18.0207 25.5583 17.778C25.4556 17.526 25.3016 17.33 25.0963 17.19C24.8909 17.05 24.6436 16.98 24.3543 16.98C24.0649 16.98 23.8176 17.05 23.6123 17.19C23.4069 17.33 23.2483 17.526 23.1363 17.778C23.0336 18.0207 22.9823 18.31 22.9823 18.646V18.674ZM31.4517 23.14C30.9571 23.14 30.5137 23.0467 30.1217 22.86C29.7297 22.664 29.4171 22.4027 29.1837 22.076C28.9504 21.7493 28.8337 21.3853 28.8337 20.984C28.8337 20.3213 29.0997 19.7987 29.6317 19.416C30.1731 19.0333 30.8824 18.772 31.7597 18.632L33.5937 18.366V18.114C33.5937 17.75 33.5097 17.47 33.3417 17.274C33.1737 17.078 32.8797 16.98 32.4597 16.98C32.1517 16.98 31.9044 17.0407 31.7177 17.162C31.5311 17.2833 31.3864 17.442 31.2837 17.638C31.2091 17.7593 31.1017 17.82 30.9617 17.82H29.6317C29.5291 17.82 29.4497 17.792 29.3937 17.736C29.3377 17.6707 29.3144 17.596 29.3237 17.512C29.3237 17.3533 29.3844 17.1667 29.5057 16.952C29.6271 16.7373 29.8137 16.5273 30.0657 16.322C30.3177 16.1073 30.6397 15.93 31.0317 15.79C31.4237 15.65 31.9044 15.58 32.4737 15.58C33.0617 15.58 33.5657 15.65 33.9857 15.79C34.4057 15.93 34.7417 16.126 34.9937 16.378C35.2457 16.63 35.4324 16.924 35.5537 17.26C35.6751 17.5867 35.7357 17.9413 35.7357 18.324V22.65C35.7357 22.7527 35.7031 22.8367 35.6377 22.902C35.5724 22.9673 35.4884 23 35.3857 23H34.0137C33.9204 23 33.8411 22.9673 33.7757 22.902C33.7104 22.8367 33.6777 22.7527 33.6777 22.65V22.132C33.5564 22.3093 33.3931 22.4773 33.1877 22.636C32.9824 22.7853 32.7351 22.9067 32.4457 23C32.1657 23.0933 31.8344 23.14 31.4517 23.14ZM32.0117 21.684C32.3197 21.684 32.5951 21.6187 32.8377 21.488C33.0804 21.3573 33.2717 21.1567 33.4117 20.886C33.5517 20.6153 33.6217 20.2747 33.6217 19.864V19.626L32.3197 19.836C31.8157 19.92 31.4471 20.046 31.2137 20.214C30.9804 20.382 30.8637 20.5873 30.8637 20.83C30.8637 21.0073 30.9151 21.1613 31.0177 21.292C31.1297 21.4227 31.2744 21.5207 31.4517 21.586C31.6291 21.6513 31.8157 21.684 32.0117 21.684ZM37.7668 23C37.6735 23 37.5942 22.9673 37.5288 22.902C37.4635 22.8367 37.4308 22.7527 37.4308 22.65V16.07C37.4308 15.9767 37.4635 15.8973 37.5288 15.832C37.5942 15.7573 37.6735 15.72 37.7668 15.72H39.1388C39.2322 15.72 39.3115 15.7573 39.3768 15.832C39.4515 15.8973 39.4888 15.9767 39.4888 16.07V16.63C39.7222 16.3407 40.0068 16.1167 40.3428 15.958C40.6882 15.7993 41.0848 15.72 41.5328 15.72H42.1348C42.2282 15.72 42.3075 15.7527 42.3728 15.818C42.4382 15.8833 42.4708 15.9673 42.4708 16.07V17.274C42.4708 17.3767 42.4382 17.4607 42.3728 17.526C42.3075 17.5913 42.2282 17.624 42.1348 17.624H40.9028C40.4922 17.624 40.1702 17.7407 39.9368 17.974C39.7035 18.198 39.5868 18.52 39.5868 18.94V22.65C39.5868 22.7527 39.5542 22.8367 39.4888 22.902C39.4235 22.9673 39.3395 23 39.2368 23H37.7668ZM43.8508 23C43.7575 23 43.6781 22.9673 43.6128 22.902C43.5475 22.8367 43.5148 22.7527 43.5148 22.65V16.07C43.5148 15.9673 43.5475 15.8833 43.6128 15.818C43.6781 15.7527 43.7575 15.72 43.8508 15.72H45.2228C45.3255 15.72 45.4095 15.7527 45.4748 15.818C45.5401 15.8833 45.5728 15.9673 45.5728 16.07V16.616C45.8155 16.3173 46.1281 16.07 46.5108 15.874C46.8935 15.678 47.3601 15.58 47.9108 15.58C48.4615 15.58 48.9421 15.706 49.3528 15.958C49.7728 16.2007 50.0995 16.56 50.3328 17.036C50.5755 17.5027 50.6968 18.072 50.6968 18.744V22.65C50.6968 22.7527 50.6595 22.8367 50.5848 22.902C50.5195 22.9673 50.4401 23 50.3468 23H48.8628C48.7601 23 48.6761 22.9673 48.6108 22.902C48.5455 22.8367 48.5128 22.7527 48.5128 22.65V18.828C48.5128 18.3333 48.3915 17.9507 48.1488 17.68C47.9155 17.4 47.5701 17.26 47.1128 17.26C46.6741 17.26 46.3241 17.4 46.0628 17.68C45.8015 17.9507 45.6708 18.3333 45.6708 18.828V22.65C45.6708 22.7527 45.6381 22.8367 45.5728 22.902C45.5075 22.9673 45.4281 23 45.3348 23H43.8508ZM55.8 23C55.7067 23 55.6274 22.9673 55.562 22.902C55.4967 22.8367 55.464 22.7527 55.464 22.65V16.07C55.464 15.9673 55.4967 15.8833 55.562 15.818C55.6274 15.7527 55.7067 15.72 55.8 15.72H57.102C57.1954 15.72 57.2747 15.7527 57.34 15.818C57.4147 15.8833 57.452 15.9673 57.452 16.07V16.546C57.6387 16.2847 57.8954 16.0607 58.222 15.874C58.558 15.6873 58.9547 15.5893 59.412 15.58C60.4947 15.5613 61.2367 15.972 61.638 16.812C61.8527 16.448 62.1607 16.154 62.562 15.93C62.9727 15.6967 63.4207 15.58 63.906 15.58C64.3914 15.58 64.83 15.692 65.222 15.916C65.614 16.1307 65.922 16.4667 66.146 16.924C66.3794 17.372 66.496 17.9507 66.496 18.66V22.65C66.496 22.7527 66.4634 22.8367 66.398 22.902C66.3327 22.9673 66.2534 23 66.16 23H64.774C64.6807 23 64.6014 22.9673 64.536 22.902C64.4707 22.8367 64.438 22.7527 64.438 22.65V18.772C64.438 18.3893 64.382 18.0907 64.27 17.876C64.158 17.652 64.0087 17.4933 63.822 17.4C63.6447 17.3067 63.444 17.26 63.22 17.26C63.024 17.26 62.8327 17.3067 62.646 17.4C62.4687 17.4933 62.3194 17.652 62.198 17.876C62.086 18.0907 62.03 18.3893 62.03 18.772V22.65C62.03 22.7527 61.9974 22.8367 61.932 22.902C61.8667 22.9673 61.7827 23 61.68 23H60.308C60.2054 23 60.1214 22.9673 60.056 22.902C59.9907 22.8367 59.958 22.7527 59.958 22.65V18.772C59.958 18.3893 59.902 18.0907 59.79 17.876C59.678 17.652 59.5287 17.4933 59.342 17.4C59.1647 17.3067 58.9687 17.26 58.754 17.26C58.558 17.26 58.3667 17.3113 58.18 17.414C57.9934 17.5073 57.8394 17.6613 57.718 17.876C57.606 18.0907 57.55 18.3847 57.55 18.758V22.65C57.55 22.7527 57.5174 22.8367 57.452 22.902C57.3867 22.9673 57.3074 23 57.214 23H55.8ZM71.5245 23.14C70.7499 23.14 70.1012 23.014 69.5785 22.762C69.0559 22.5007 68.6545 22.132 68.3745 21.656C68.1039 21.18 67.9545 20.6247 67.9265 19.99C67.9172 19.8033 67.9125 19.5933 67.9125 19.36C67.9125 19.1173 67.9172 18.9073 67.9265 18.73C67.9545 18.086 68.1132 17.5307 68.4025 17.064C68.6919 16.588 69.0979 16.224 69.6205 15.972C70.1432 15.7107 70.7779 15.58 71.5245 15.58C72.2619 15.58 72.8919 15.7107 73.4145 15.972C73.9372 16.224 74.3432 16.588 74.6325 17.064C74.9219 17.5307 75.0805 18.086 75.1085 18.73C75.1272 18.9073 75.1365 19.1173 75.1365 19.36C75.1365 19.5933 75.1272 19.8033 75.1085 19.99C75.0805 20.6247 74.9265 21.18 74.6465 21.656C74.3759 22.132 73.9792 22.5007 73.4565 22.762C72.9339 23.014 72.2899 23.14 71.5245 23.14ZM71.5245 21.6C71.9819 21.6 72.3272 21.46 72.5605 21.18C72.7939 20.8907 72.9199 20.4707 72.9385 19.92C72.9479 19.78 72.9525 19.5933 72.9525 19.36C72.9525 19.1267 72.9479 18.94 72.9385 18.8C72.9199 18.2587 72.7939 17.8433 72.5605 17.554C72.3272 17.2647 71.9819 17.12 71.5245 17.12C71.0672 17.12 70.7172 17.2647 70.4745 17.554C70.2412 17.8433 70.1152 18.2587 70.0965 18.8C70.0872 18.94 70.0825 19.1267 70.0825 19.36C70.0825 19.5933 70.0872 19.78 70.0965 19.92C70.1152 20.4707 70.2412 20.8907 70.4745 21.18C70.7172 21.46 71.0672 21.6 71.5245 21.6ZM76.9368 23C76.8434 23 76.7641 22.9673 76.6988 22.902C76.6334 22.8367 76.6008 22.7527 76.6008 22.65V16.07C76.6008 15.9767 76.6334 15.8973 76.6988 15.832C76.7641 15.7573 76.8434 15.72 76.9368 15.72H78.3088C78.4021 15.72 78.4814 15.7573 78.5468 15.832C78.6214 15.8973 78.6588 15.9767 78.6588 16.07V16.63C78.8921 16.3407 79.1768 16.1167 79.5128 15.958C79.8581 15.7993 80.2548 15.72 80.7028 15.72H81.3048C81.3981 15.72 81.4774 15.7527 81.5428 15.818C81.6081 15.8833 81.6408 15.9673 81.6408 16.07V17.274C81.6408 17.3767 81.6081 17.4607 81.5428 17.526C81.4774 17.5913 81.3981 17.624 81.3048 17.624H80.0728C79.6621 17.624 79.3401 17.7407 79.1068 17.974C78.8734 18.198 78.7568 18.52 78.7568 18.94V22.65C78.7568 22.7527 78.7241 22.8367 78.6588 22.902C78.5934 22.9673 78.5094 23 78.4068 23H76.9368ZM85.8507 23.14C84.7774 23.14 83.9234 22.8413 83.2887 22.244C82.6634 21.6467 82.332 20.7787 82.2947 19.64C82.2947 19.5653 82.2947 19.4673 82.2947 19.346C82.2947 19.2153 82.2947 19.1127 82.2947 19.038C82.332 18.3193 82.4954 17.7033 82.7847 17.19C83.074 16.6673 83.48 16.2707 84.0027 16C84.5254 15.72 85.1367 15.58 85.8367 15.58C86.6207 15.58 87.274 15.7433 87.7967 16.07C88.3287 16.3873 88.7254 16.826 88.9867 17.386C89.2574 17.9367 89.3927 18.5713 89.3927 19.29V19.612C89.3927 19.7053 89.3554 19.7847 89.2807 19.85C89.2154 19.9153 89.136 19.948 89.0427 19.948H84.4647C84.4647 19.9573 84.4647 19.976 84.4647 20.004C84.4647 20.0227 84.4647 20.0413 84.4647 20.06C84.474 20.3587 84.53 20.634 84.6327 20.886C84.7447 21.1287 84.8987 21.3247 85.0947 21.474C85.3 21.6233 85.5427 21.698 85.8227 21.698C86.056 21.698 86.2474 21.6653 86.3967 21.6C86.546 21.5347 86.6674 21.4553 86.7607 21.362C86.8634 21.2687 86.938 21.1893 86.9847 21.124C87.0687 21.0307 87.134 20.9747 87.1807 20.956C87.2367 20.928 87.3207 20.914 87.4327 20.914H88.8887C88.982 20.914 89.0567 20.942 89.1127 20.998C89.178 21.0447 89.206 21.1147 89.1967 21.208C89.1874 21.3573 89.108 21.544 88.9587 21.768C88.8187 21.9827 88.6087 22.1973 88.3287 22.412C88.0487 22.6173 87.6987 22.79 87.2787 22.93C86.868 23.07 86.392 23.14 85.8507 23.14ZM84.4647 18.674H87.2087V18.646C87.2087 18.31 87.1527 18.0207 87.0407 17.778C86.938 17.526 86.784 17.33 86.5787 17.19C86.3734 17.05 86.126 16.98 85.8367 16.98C85.5474 16.98 85.3 17.05 85.0947 17.19C84.8894 17.33 84.7307 17.526 84.6187 17.778C84.516 18.0207 84.4647 18.31 84.4647 18.646V18.674Z" fill="#37CDAB"/>
<path d="M102.167 18H113.833" stroke="#37CDAB" stroke-width="2" stroke-linecap="round" stroke-linejoin="round"/>
<path d="M108.833 23L113.833 18" stroke="#37CDAB" stroke-width="2" stroke-linecap="round" stroke-linejoin="round"/>
<path d="M108.833 13L113.833 18" stroke="#37CDAB" stroke-width="2" stroke-linecap="round" stroke-linejoin="round"/>
</svg>
